<?xml version="1.0" encoding="utf-8"?>
<!-- Generator: Adobe Illustrator 18.1.1, SVG Export Plug-In . SVG Version: 6.00 Build 0)  -->
<!DOCTYPE svg PUBLIC "-//W3C//DTD SVG 1.1//EN" "http://www.w3.org/Graphics/SVG/1.1/DTD/svg11.dtd">
<svg version="1.1" xmlns="http://www.w3.org/2000/svg" xmlns:xlink="http://www.w3.org/1999/xlink" x="0px" y="0px" viewBox="0 0 140 140" enable-background="new 0 0 140 140" xml:space="preserve">
<g>
	<g>
		<path fill="#ffffff" d="M125.2,122.8c3,0,5.6-1,7.9-3L95,81.8c-0.9,0.7-1.8,1.3-2.6,1.9c-2.8,2.1-5.2,3.7-6.9,4.9
			c-1.8,1.2-4.1,2.4-7.1,3.6c-3,1.2-5.7,1.8-8.3,1.8H70h-0.1c-2.6,0-5.3-0.6-8.3-1.8c-3-1.2-5.3-2.4-7.1-3.6
			c-1.8-1.2-4.1-2.8-6.9-4.9c-0.8-0.6-1.7-1.2-2.6-1.9L6.9,119.8c2.2,2,4.8,3,7.9,3H125.2z"/>
		<path fill="#ffffff" d="M10.4,57.8c-2.8-1.9-5.4-4.1-7.6-6.5v57.9l33.6-33.6C29.6,70.9,21,65,10.4,57.8z"/>
		<path fill="#ffffff" d="M129.7,57.8c-10.2,6.9-18.9,12.9-26,17.9l33.5,33.5V51.2C135,53.7,132.5,55.8,129.7,57.8z"/>
		<path fill="#ffffff" d="M125.2,17.2H14.8c-3.9,0-6.8,1.3-8.9,3.9c-2.1,2.6-3.1,5.9-3.1,9.7c0,3.1,1.4,6.6,4.1,10.2
			c2.7,3.7,5.7,6.6,8.8,8.7c1.7,1.2,6.8,4.8,15.4,10.7c4.6,3.2,8.6,6,12.1,8.4c2.9,2,5.5,3.8,7.6,5.3c0.2,0.2,0.6,0.4,1.1,0.8
			c0.5,0.4,1.2,0.9,2.1,1.5c1.6,1.2,3,2.1,4,2.9c1.1,0.7,2.4,1.5,3.9,2.4c1.5,0.9,3,1.6,4.3,2c1.4,0.4,2.6,0.7,3.7,0.7H70h0.1
			c1.1,0,2.4-0.2,3.7-0.7c1.3-0.4,2.8-1.1,4.3-2c1.5-0.9,2.8-1.7,3.9-2.4c1.1-0.7,2.4-1.7,4.1-2.9c0.8-0.6,1.5-1.1,2.1-1.5
			c0.5-0.4,0.9-0.6,1.1-0.8c1.6-1.1,4.2-2.9,7.6-5.3c6.2-4.3,15.4-10.7,27.5-19.1c3.6-2.5,6.7-5.6,9.1-9.2c2.4-3.6,3.7-7.4,3.7-11.3
			c0-3.3-1.2-6.1-3.6-8.5C131.3,18.4,128.4,17.2,125.2,17.2z"/>
	</g>
</g>
</svg>
