<?xml version="1.0" encoding="utf-8"?>
<!-- Generator: Adobe Illustrator 18.0.0, SVG Export Plug-In . SVG Version: 6.00 Build 0)  -->
<!DOCTYPE svg PUBLIC "-//W3C//DTD SVG 1.1//EN" "http://www.w3.org/Graphics/SVG/1.1/DTD/svg11.dtd">
<svg version="1.1" id="Layer_1" xmlns="http://www.w3.org/2000/svg" xmlns:xlink="http://www.w3.org/1999/xlink" x="0px" y="0px"
	 viewBox="0 0 140 140" enable-background="new 0 0 140 140" xml:space="preserve">
<path fill="#FFFFFF" d="M139.3,23.9c0-12.2-11-23.1-23.1-23.1H23.8c-12.2,0-23.1,11-23.1,23.1v92.3c0,12.2,11,23.1,23.1,23.1H70
	V86.9H53.1V63.9H70v-9c0-15.5,11.7-29.5,26-29.5h18.7v23.1H96c-2,0-4.4,2.5-4.4,6.2v9.2h23.1v23.1H91.6v52.3h24.7
	c12.2,0,23.1-11,23.1-23.1L139.3,23.9L139.3,23.9z"/>
</svg>
