<svg xmlns="http://www.w3.org/2000/svg" xmlns:xlink="http://www.w3.org/1999/xlink" preserveAspectRatio="xMidYMid" width="190" height="67" viewBox="0 0 190 67">
  <path fill="#ffffff" d="M173.420,66.536 C173.420,66.536 173.303,66.536 173.303,66.536 C173.303,66.536 104.067,66.536 104.067,66.536 C104.067,66.536 103.950,66.536 103.950,66.536 C103.950,66.536 99.224,66.536 99.224,66.536 C97.694,66.883 96.049,67.002 94.521,67.002 C92.861,67.002 91.239,66.839 89.668,66.536 C89.668,66.536 29.871,66.536 29.871,66.536 C28.340,66.883 26.695,67.002 25.167,67.002 C11.291,67.002 0.001,55.930 0.001,42.179 C0.001,28.429 11.291,17.243 25.167,17.243 C27.871,17.243 30.576,17.709 33.045,18.525 C35.867,7.923 45.744,-0.002 57.385,-0.002 C66.795,-0.002 74.905,5.122 79.257,12.699 C80.314,12.466 81.372,12.466 82.434,12.466 C88.105,12.466 93.313,14.317 97.503,17.428 C99.189,17.635 100.841,18.010 102.399,18.525 C105.220,7.923 115.097,-0.002 126.738,-0.002 C136.149,-0.002 144.259,5.122 148.610,12.699 C149.667,12.466 150.726,12.466 151.787,12.466 C164.603,12.466 175.068,21.905 176.713,34.027 C184.237,35.541 189.999,42.179 189.999,50.104 C189.999,59.192 182.592,66.536 173.420,66.536 Z" id="path-1" class="cls-2" fill-rule="evenodd"/>
</svg>
