<?xml version="1.0" encoding="utf-8"?>
<!-- Generator: Adobe Illustrator 18.0.0, SVG Export Plug-In . SVG Version: 6.00 Build 0)  -->
<!DOCTYPE svg PUBLIC "-//W3C//DTD SVG 1.1//EN" "http://www.w3.org/Graphics/SVG/1.1/DTD/svg11.dtd">
<svg version="1.1" id="Layer_1" xmlns="http://www.w3.org/2000/svg" xmlns:xlink="http://www.w3.org/1999/xlink" x="0px" y="0px"
	 viewBox="0 0 200 140" enable-background="new 0 0 200 140" xml:space="preserve">
<path fill="#ffffff" d="M173.5,62.7c10.7-0.9,17.9-5.7,20.7-12.3c-3.9,2.4-15.8,4.9-22.4,2.5c-0.3-1.5-0.7-3-1-4.4c-5-18.5-22.2-33.3-40.3-31.5c1.5-0.6,2.9-1.1,4.4-1.6c2-0.7,13.6-2.6,11.8-6.7c-1.5-3.6-15.8,2.7-18.5,3.6c3.5-1.3,9.4-3.6,10-7.7c-5.4,0.7-10.7,3.3-14.8,7c1.5-1.6,2.6-3.5,2.8-5.6c-14.5,9.2-22.9,27.9-29.7,45.9c-5.4-5.2-10.1-9.3-14.4-11.6c-12-6.4-26.3-13.1-48.7-21.5c-0.7,7.4,3.7,17.3,16.3,23.9C47,42.3,42,43.1,38,44.1c1.6,8.5,6.9,15.5,21.3,18.9c-6.6,0.4-9.9,1.9-13,5.1c3,5.9,10.3,12.9,23.4,11.5c-14.6,6.3-5.9,17.9,5.9,16.2c-20.2,20.9-52.1,19.4-70.5,1.9c47.8,65.2,151.8,38.6,167.3-24.2c11.6,0.1,18.4-4,22.7-8.6C188.3,66.1,178.6,64.9,173.5,62.7z"/>
</svg>
